# xmcd CD database file
# Copyright (C) 1993-1998 Ti Kan
#
# Track frame offsets:
#	150
#	20775
#	39197
#	58282
#	71190
#	85382
#	97522
#	115085
#	128229
#	148720
#	169502
#
# Disc length: 2492 seconds
#
# Revision: 1
# Processed by: cddbd v1.4b41PL1 Copyright (c) Steve Scherf et al.
# Submitted via: CDValet v3.31 - Copyright (c) 1997 Greg Leichner
#
DISCID=9309ba0b
DTITLE=Ragga By Roots - Education Fa Ya Ear
DYEAR=1900
DGENRE=
TTITLE0=Jump To The Sound
TTITLE1=Romance De Un Día
TTITLE2=Sentimientos
TTITLE3=Sexy Fever
TTITLE4=One Time
TTITLE5=Diky Diky
TTITLE6=M.O.N.E.Y.
TTITLE7=Me´Ndamick
TTITLE8=*¿¡¡"*&/(!$X (Stressed)
TTITLE9=Time Lonely
TTITLE10=Jump To The Sound (Remix)
EXTD=
EXTT0=
EXTT1=
EXTT2=
EXTT3=
EXTT4=
EXTT5=
EXTT6=
EXTT7=
EXTT8=
EXTT9=
EXTT10=
PLAYORDER=
